<?xml version="1.0" encoding="UTF-8" standalone="no"?>
<svg
   xmlns:dc="http://purl.org/dc/elements/1.1/"
   xmlns:cc="http://creativecommons.org/ns#"
   xmlns:rdf="http://www.w3.org/1999/02/22-rdf-syntax-ns#"
   xmlns:svg="http://www.w3.org/2000/svg"
   xmlns="http://www.w3.org/2000/svg"
   xmlns:sodipodi="http://sodipodi.sourceforge.net/DTD/sodipodi-0.dtd"
   xmlns:inkscape="http://www.inkscape.org/namespaces/inkscape"
   id="svg2"
   viewBox="0 0 466.73 510.01"
   version="1.1"
   inkscape:version="0.48.2 r9819"
   width="100%"
   height="100%"
   sodipodi:docname="1284295082 remix.svg">
  <defs
     id="defs43" />
  <sodipodi:namedview
     pagecolor="#ffffff"
     bordercolor="#666666"
     borderopacity="1"
     objecttolerance="10"
     gridtolerance="10"
     guidetolerance="10"
     inkscape:pageopacity="0"
     inkscape:pageshadow="2"
     inkscape:window-width="1680"
     inkscape:window-height="1002"
     id="namedview41"
     showgrid="false"
     inkscape:zoom="1.3308833"
     inkscape:cx="282.51913"
     inkscape:cy="257.12553"
     inkscape:window-x="143"
     inkscape:window-y="0"
     inkscape:window-maximized="0"
     inkscape:current-layer="svg2" />
  <g
     id="g3009">
    <path
       style="fill:#ff7f2a;fill-rule:evenodd;stroke:#010002;stroke-width:4.78684664000000026;stroke-linecap:round;fill-opacity:1"
       inkscape:connector-curvature="0"
       d="m 89.567298,13.636504 c -6.095852,1.876876 -9.489481,8.289288 -7.612273,14.385074 15.884984,17.3776 22.975405,36.303514 17.676653,57.411658 1.876872,6.095853 8.289292,9.489481 14.385072,7.612274 6.09586,-1.876877 9.49943,-8.292604 7.62289,-14.38839 5.27998,-22.576889 -8.63145,-39.245645 -17.67666,-57.411659 -1.87687,-6.095852 -8.299895,-9.486165 -14.395682,-7.608957 z"
       id="rect2846" />
    <path
       style="fill:#ff7f2a;fill-rule:evenodd;stroke:#010002;stroke-width:4.78684664000000026;stroke-linecap:round;fill-opacity:1"
       inkscape:connector-curvature="0"
       d="m 186.08005,330.90518 -16.37037,11.73802 c 66.74664,61.06793 66.16379,87.93899 -35.12719,63.65199 l -1.06214,20.11484 c 93.34318,15.15757 174.93641,22.96479 52.55983,-95.50485 z"
       id="rect3721-1" />
    <path
       style="fill:#ff7f2a;fill-rule:evenodd;stroke:#010002;stroke-width:4.78684664000000026;stroke-linecap:round;fill-opacity:1"
       inkscape:connector-curvature="0"
       d="m 303.20163,308.16782 -18.24293,8.55187 c 50.02749,82.61438 70.02894,61.43993 -27.46253,159.69197 l 14.13044,14.34926 c 98.89325,-91.2876 99.23142,-90.0012 31.57635,-182.59509 z"
       id="rect3721" />
    <path
       style="fill:#ff7f2a;fill-rule:evenodd;stroke:#010002;stroke-width:4.78684664000000026;stroke-linecap:round"
       inkscape:connector-curvature="0"
       d="m 315.40249,200.12394 c 46.05226,96.93712 13.46736,158.18011 -153.67774,156.17758 -55.01127,-0.659 -40.54596,-89.2718 -40.54596,-156.17758 0,-66.90579 -85.531981,-120.171806 37.54283,-124.143715 169.10121,-5.45292 108.62077,45.224725 156.6749,124.143715 z"
       id="path2816" />
    <path
       style="fill:#ffffff;fill-rule:evenodd;stroke:#010002;stroke-width:4.78676224;stroke-linecap:round"
       inkscape:connector-curvature="0"
       d="m 230.52435,44.55406 c 3.2266,18.239445 -2.76445,34.547586 -13.38129,36.425728 -10.61685,1.878143 -21.83917,-11.385274 -25.0657,-29.624374 -3.2266,-18.239446 2.76445,-34.547586 13.3813,-36.425728 10.61684,-1.878143 21.83916,11.385274 25.06569,29.624374 z"
       id="path2822-7" />
    <path
       style="fill:#ffffff;fill-rule:evenodd;stroke:#010002;stroke-width:4.78676224;stroke-linecap:round"
       inkscape:connector-curvature="0"
       d="m 176.94004,45.05801 c 3.2266,18.239445 -2.76445,34.547586 -13.38129,36.425728 -10.61685,1.878143 -21.83917,-11.385274 -25.0657,-29.624374 -3.2266,-18.239446 2.76445,-34.547586 13.3813,-36.425728 10.61684,-1.878143 21.83916,11.385274 25.06569,29.624374 z"
       id="path2822" />
    <path
       style="fill:#ff7f2a;fill-rule:evenodd;stroke:#010002;stroke-width:4.78684664000000026;stroke-linecap:round;fill-opacity:1"
       inkscape:connector-curvature="0"
       d="m 319.7391,265.96214 c 38.68931,-8.00151 67.66833,-31.32769 76.3946,-71.34848 8.43517,0.70387 23.2665,-4.44642 38.31334,-13.94943 20.33564,-12.84339 33.35608,-28.7602 29.07451,-35.53897 -4.28111,-6.77877 -24.23528,-1.8483 -44.57026,10.99536 -3.4175,2.15842 -6.62527,4.39344 -9.58165,6.66671 -0.69326,-9.11086 -5.04114,-16.17741 -11.14986,-16.98306 -1.04921,-0.13837 -2.09517,-0.0858 -3.12488,0.14222 -1.32392,0.29313 -2.61463,0.87395 -3.85056,1.70136 -4.83373,3.23614 -8.75412,10.27723 -9.87938,18.81451 -0.65003,4.92928 -0.26862,9.61547 0.90565,13.53964 -15.01568,32.65585 -38.72446,58.64169 -76.28188,71.24902"
       id="rect3721-4" />
    <rect
       style="fill:#ffffff;fill-rule:evenodd;stroke:#010002;stroke-width:4.78684664;stroke-linecap:round"
       x="73.675369"
       y="335.49063"
       width="41.05986"
       height="24.027067"
       transform="matrix(0.96731203,-0.25358912,0.25358912,0.96731203,0,0)"
       ry="12.013865"
       id="rect3965-3-1-9" />
    <rect
       style="fill:#ffffff;fill-rule:evenodd;stroke:#010002;stroke-width:4.78684664;stroke-linecap:round"
       x="198.76596"
       y="269.96335"
       width="41.05986"
       height="24.027067"
       transform="matrix(0.99906051,-0.04333691,0.04333691,0.99906051,0,0)"
       ry="12.013865"
       id="rect3965-4-47" />
    <rect
       style="fill:#ffffff;fill-rule:evenodd;stroke:#010002;stroke-width:4.78684664;stroke-linecap:round"
       x="188.1987"
       y="189.03508"
       width="41.05986"
       height="24.027067"
       transform="matrix(0.98488131,0.1732305,-0.1732305,0.98488131,0,0)"
       ry="12.013865"
       id="rect3965" />
    <path
       style="fill:#f2f2f2;fill-rule:evenodd;stroke:#010002;stroke-width:4.78684664;stroke-linecap:round"
       inkscape:connector-curvature="0"
       d="m 283.0437,166.08753 c 1.00113,33.68165 -19.73886,36.97522 -56.40376,38.04346 -68.71602,2.00226 -89.9349,-17.33119 -96.44644,-39.04473 -26.0296,-86.745434 53.76201,-68.079451 90.44547,-68.079451 36.68015,0 44.3899,17.376271 62.4107,69.080721 z"
       id="path2819" />
    <path
       inkscape:connector-curvature="0"
       style="text-indent:0;text-transform:none;block-progression:tb;color:#000000;fill:#000000;fill-rule:evenodd"
       d="m 94.51395,103.70402 c -0.03282,17.48767 10.03587,32.65983 16.30671,48.43209 8.41793,18.78335 14.16957,39.22244 12.49659,60.00434 -0.36228,36.49051 -4.9127,73.62952 2.50728,109.6353 3.10485,13.81548 9.53921,25.96064 23.85665,30.83104 12.69552,4.22229 26.48249,1.68889 39.6813,2.00571 36.38109,-1.40462 75.45964,-7.48496 108.09693,-24.49454 -1.02156,-3.31479 0.49609,-0.73776 -1.29362,-0.003 -30.16397,13.16499 -69.7836,18.44717 -102.32805,19.94045 -47.07011,1.93648 -55.38725,-61.19724 -53.5107,-72.8537 7.44053,-58.29689 -11.8587,-122.95678 -45.482673,-172.01218 -0.168272,-0.46227 -0.283192,-1.20212 -0.331545,-1.49195 v -3.1e-4 z"
       id="path2816-2" />
    <path
       style="fill-rule:evenodd;stroke:#010002;stroke-width:4.78684664;stroke-linecap:round"
       inkscape:connector-curvature="0"
       d="m 218.84332,176.94231 c -20.37476,1.84352 -44.82289,-6.53548 -44.54903,-3.50682 0.27404,3.02866 25.16691,16.3213 45.54168,14.47791 20.37477,-1.84352 36.49515,-18.84701 36.22063,-21.87534 -0.27404,-3.02866 -16.83917,9.06112 -37.21328,10.90451 z"
       id="path2849" />
    <path
       style="fill-rule:evenodd;stroke:#010002;stroke-width:4.78679514;stroke-linecap:round"
       inkscape:connector-curvature="0"
       d="m 172.01419,54.512389 c 1.80195,7.847586 -0.66912,15.112073 -5.51892,16.225673 -4.85014,1.113679 -10.24237,-4.345256 -12.04432,-12.192843 -1.80194,-7.847587 0.66912,-15.112073 5.51892,-16.225673 4.85015,-1.113679 10.24238,4.345256 12.04432,12.192843 z"
       id="path2852" />
    <path
       style="fill-rule:evenodd;stroke:#010002;stroke-width:4.78679514;stroke-linecap:round"
       inkscape:connector-curvature="0"
       d="m 223.07212,56.952559 c 1.80195,7.847586 -0.66912,15.112073 -5.51892,16.225673 -4.85014,1.113679 -10.24237,-4.345256 -12.04432,-12.192843 -1.80194,-7.847587 0.66912,-15.112073 5.51892,-16.225673 4.85015,-1.113679 10.24238,4.345256 12.04432,12.192843 z"
       id="path2852-6" />
    <rect
       style="fill:#ffffff;fill-rule:evenodd;stroke:#010002;stroke-width:4.78684664;stroke-linecap:round"
       x="206.77509"
       y="225.15558"
       width="41.05986"
       height="24.027067"
       ry="12.013865"
       id="rect3965-4" />
    <path
       style="fill:#a05a2c;fill-rule:evenodd;stroke:#010002;stroke-width:4.78684664000000026;stroke-linecap:round"
       inkscape:connector-curvature="0"
       d="m 159.26469,424.89818 c -10.44234,-23.79697 -15.0475,-23.36729 -22.64187,-20.0346 -7.59504,3.33256 -17.80994,6.76684 1.48227,50.73235 24.1199,54.96619 33.06498,20.21895 28.3219,13.41564 -32.17711,-46.15106 3.28044,-20.31641 -7.16137,-44.11272 z"
       id="path3754-8" />
    <path
       style="fill:#ff7f2a;fill-rule:evenodd;stroke:#010002;stroke-width:4.78684664000000026;stroke-linecap:round;fill-opacity:1"
       inkscape:connector-curvature="0"
       d="m 156.46645,255.39249 c -26.92941,-16.93267 -50.95184,-39.67997 -69.68413,-73.00621 2.792073,-5.01999 3.22958,-12.86925 0.635101,-20.87076 -2.65594,-8.19115 -7.788655,-14.4043 -13.129182,-16.70987 -1.517216,-0.65497 -3.056049,-0.99258 -4.555163,-0.97454 -0.899481,0.0108 -1.787027,0.14726 -2.649906,0.42704 -5.861451,1.90055 -8.844295,9.63868 -7.872868,18.72434 -3.320025,-1.69944 -6.880222,-3.31539 -10.632648,-4.81801 -22.32823,-8.94111 -42.8455604,-10.16915 -45.8254869,-2.72656 -2.9803243,7.44252 12.7114349,20.73349 35.0396649,29.6746 11.625957,4.65542 22.750618,7.2111 31.174513,7.54464 13.915607,32.54247 35.665625,59.60118 72.469105,76.12273"
       id="rect3721-4-8" />
    <path
       style="fill-rule:evenodd;stroke:#010002;stroke-width:4.78684664;stroke-linecap:round"
       inkscape:connector-curvature="0"
       d="m 148.05184,3.4448103 c -9.61746,3.7073362 -14.66358,22.4509017 -14.32872,24.9275427 0.335,2.476707 4.71325,-15.316053 14.33071,-19.0233893 9.61745,-3.7073362 21.92772,2.4100003 21.59286,-0.066727 -0.33499,-2.4767074 -11.9774,-9.54451745 -21.59485,-5.8372476 z"
       id="path3894" />
    <path
       style="fill-rule:evenodd;stroke:#010002;stroke-width:4.78684664;stroke-linecap:round"
       inkscape:connector-curvature="0"
       d="m 215.21622,3.199467 c 9.92978,2.7653505 16.7543,20.936404 16.65881,23.434264 -0.0953,2.497462 -6.16415,-14.791549 -16.09385,-17.5572973 -9.92978,-2.7653506 -21.59419,4.5072883 -21.49871,2.0098253 0.0953,-2.4974617 11.00398,-10.6518773 20.93375,-7.886792 z"
       id="path3894-3" />
    <path
       style="fill:#a05a2c;fill-rule:evenodd;stroke:#010002;stroke-width:4.78684664000000026;stroke-linecap:round"
       inkscape:connector-curvature="0"
       d="m 277.63951,475.22008 c -25.97588,-0.76898 -27.56199,3.57578 -27.80734,11.866 -0.24544,8.28995 -1.52272,18.9909 46.46802,20.4119 59.99904,1.77622 32.44235,-21.20297 24.26247,-19.83501 -55.49003,9.28259 -16.94792,-11.67437 -42.92314,-12.44289 z"
       id="path3754-8-4" />
    <rect
       style="fill:#ffffff;fill-rule:evenodd;stroke:#010002;stroke-width:4.78684664;stroke-linecap:round"
       x="187.93939"
       y="279.96039"
       width="41.05986"
       height="24.027067"
       transform="matrix(0.96876953,-0.2479629,0.2479629,0.96876953,0,0)"
       ry="12.013865"
       id="rect3965-4-4" />
    <rect
       style="fill:#ffffff;fill-rule:evenodd;stroke:#010002;stroke-width:4.78684664;stroke-linecap:round"
       x="190.60107"
       y="313.27859"
       width="41.05986"
       height="24.027067"
       transform="matrix(0.99709052,-0.07622655,0.07622655,0.99709052,0,0)"
       ry="12.013865"
       id="rect3965-4-47-6" />
    <rect
       style="fill:#ffffff;fill-rule:evenodd;stroke:#010002;stroke-width:4.78684664;stroke-linecap:round"
       x="148.9334"
       y="267.15588"
       width="41.05986"
       height="24.027067"
       transform="matrix(0.99985174,-0.01721891,0.01721891,0.99985174,0,0)"
       ry="12.013865"
       id="rect3965-3" />
    <rect
       style="fill:#ffffff;fill-rule:evenodd;stroke:#010002;stroke-width:4.78684664;stroke-linecap:round"
       x="185.04996"
       y="321.22098"
       width="41.05986"
       height="24.027067"
       transform="matrix(0.96731203,-0.25358912,0.25358912,0.96731203,0,0)"
       ry="12.013865"
       id="rect3965-3-1" />
    <rect
       style="fill:#ffffff;fill-rule:evenodd;stroke:#010002;stroke-width:4.78683758;stroke-linecap:round"
       x="238.9426"
       y="-341.29715"
       width="41.05978"
       height="24.027021"
       transform="matrix(0.9961419,-0.08775717,-0.08775717,-0.9961419,0,0)"
       ry="12.013842"
       id="rect3965-3-1-7" />
    <path
       style="fill:none;stroke:#010002;stroke-width:4.78684664;stroke-linecap:round"
       inkscape:connector-curvature="0"
       d="m 137.84025,399.46868 c -8.8927,2.03788 -20.36482,7.51546 -16.28947,25.3002"
       id="path4136" />
    <path
       style="fill:none;stroke:#010002;stroke-width:4.78684664;stroke-linecap:round"
       inkscape:connector-curvature="0"
       d="m 243.55006,484.87467 c -0.54044,9.10688 1.496,21.65586 19.71035,22.7367"
       id="path4136-6" />
  </g>
  <metadata
     id="metadata39">
    <rdf:RDF>
      <cc:Work>
        <dc:format>image/svg+xml</dc:format>
        <dc:type
           rdf:resource="http://purl.org/dc/dcmitype/StillImage" />
        <cc:license
           rdf:resource="http://creativecommons.org/licenses/publicdomain/" />
        <dc:publisher>
          <cc:Agent
             rdf:about="http://openclipart.org/">
            <dc:title>Openclipart</dc:title>
          </cc:Agent>
        </dc:publisher>
        <dc:title>MobilePhone</dc:title>
        <dc:date>2010-09-12T12:38:02</dc:date>
        <dc:description>Happy cartoon mobile phone running.</dc:description>
        <dc:source>http://openclipart.org/detail/84577/mobilephone-by-tombrough</dc:source>
        <dc:creator>
          <cc:Agent>
            <dc:title>TomBrough</dc:title>
          </cc:Agent>
        </dc:creator>
        <dc:subject>
          <rdf:Bag>
            <rdf:li>cartoon</rdf:li>
            <rdf:li>clip art</rdf:li>
            <rdf:li>clipart</rdf:li>
            <rdf:li>happy</rdf:li>
            <rdf:li>mobile</rdf:li>
            <rdf:li>mobile phone</rdf:li>
            <rdf:li>phone</rdf:li>
            <rdf:li>running</rdf:li>
          </rdf:Bag>
        </dc:subject>
      </cc:Work>
      <cc:License
         rdf:about="http://creativecommons.org/licenses/publicdomain/">
        <cc:permits
           rdf:resource="http://creativecommons.org/ns#Reproduction" />
        <cc:permits
           rdf:resource="http://creativecommons.org/ns#Distribution" />
        <cc:permits
           rdf:resource="http://creativecommons.org/ns#DerivativeWorks" />
      </cc:License>
    </rdf:RDF>
  </metadata>
</svg>
